Water On The Road Eddie Vedder Live Mp4 720p AAC Multichannel


Track Listing:
1. The Canyon
2. Sometimes
3. Trouble
4. Around the Bend
5. Girl From the North Country
6. Guaranteed
7. Setting Forth
8. Far Behind
9. No Ceiling
10. Rise
11. Golden State
12. Society
13. Forever Young
14. Ed Piano (Instrumental)
15. I'm Open
16. Man of the Hour
17. Driftin
18. No More
19. You're True 20. Ukulele Interlude (Instrumental)
21. Unthought Known
22. Arc
23. Hard Sun
24. The Canyon (reprise)

General
Water On The Road Eddie Vedder Live
Format : MPEG-4
Format profile : Base Media
Codec ID : isom
File size : 1.20 GiB
Duration : 1h 18mn
Overall bit rate mode : Variable
Overall bit rate : 2 204 Kbps
Encoded date : UTC 2013-01-04 12:49:41
Tagged date : UTC 2013-01-04 12:49:41

Video
ID : 1
Format : AVC
Format/Info : Advanced Video Codec
Format profile : High@L4.0
Format settings, CABAC : Yes
Format settings, ReFrames : 3 frames
Codec ID : avc1
Codec ID/Info : Advanced Video Coding
Duration : 1h 18mn
Bit rate mode : Variable
Bit rate : 1 878 Kbps
Maximum bit rate : 25.0 Mbps
Width : 1 280 pixels
Height : 720 pixels
Display aspect ratio : 16:9
Frame rate mode : Constant
Frame rate : 59.940 fps
Color space : YUV
Chroma subsampling : 4:2:0
Bit depth : 8 bits
Scan type : Progressive
Bits/(Pixel*Frame) : 0.034
Stream size : 1.03 GiB (85%)
Writing library : x264 core 125 r2208 d9d2288
Encoding settings : cabac=1 / ref=3 / deblock=1:0:0 / analyse=0x3:0x113 / me=hex / subme=7 / psy=1 / psy_rd=1.00:0.00 / mixed_ref=1 / me_range=16 / chroma_me=1 / trellis=1 / 8x8dct=1 / cqm=0 / deadzone=21,11 / fast_pskip=1 / chroma_qp_offset=-2 / threads=12 / lookahead_threads=2 / sliced_threads=0 / nr=0 / decimate=1 / interlaced=0 / bluray_compat=0 / constrained_intra=0 / bframes=3 / b_pyramid=0 / b_adapt=1 / b_bias=0 / direct=1 / weightb=1 / open_gop=0 / weightp=2 / keyint=600 / keyint_min=60 / scenecut=40 / intra_refresh=0 / rc_lookahead=40 / rc=crf / mbtree=1 / crf=24.0 / qcomp=0.60 / qpmin=0 / qpmax=69 / qpstep=4 / vbv_maxrate=25000 / vbv_bufsize=25000 / crf_max=0.0 / nal_hrd=vbr / ip_ratio=1.40 / aq=1:1.00
Encoded date : UTC 2013-01-04 12:49:41
Tagged date : UTC 2013-01-04 12:50:21

Audio
ID : 2
Format : AAC
Format/Info : Advanced Audio Codec
Format profile : LC
Codec ID : 40
Duration : 1h 18mn
Bit rate mode : Variable
Bit rate : 320 Kbps
Maximum bit rate : 329 Kbps
Channel(s) : 6 channels
Channel positions : Front: L C R, Side: L R, LFE
Sampling rate : 48.0 KHz
Compression mode : Lossy
Stream size : 179 MiB (15%)
Title : xé,
Language : English
Encoded date : UTC 2013-01-04 12:50:02
Tagged date : UTC 2013-01-04 12:50:21